<svg id="Layer_2_copy" data-name="Layer 2 copy" xmlns="http://www.w3.org/2000/svg" viewBox="0 0 290 290"><defs><style>.cls-1{fill:#6d6e71;}.cls-2{fill:#808285;}.cls-3{fill:#939598;}.cls-4{fill:#bcbec0;}.cls-5{fill:#e6e7e8;}.cls-6{fill:none;stroke:#231f20;stroke-linejoin:bevel;stroke-width:2px;}</style></defs><polygon class="cls-1" points="280.97 120.72 282.73 165.75 267.6 78.16 280.97 120.72"/><polygon class="cls-1" points="267.6 78.16 282.73 165.75 251.42 126.35 267.6 78.16"/><polygon class="cls-1" points="251.42 126.35 282.73 165.75 233.12 201.99 251.42 126.35"/><polygon class="cls-1" points="282.73 165.75 274.28 198.47 245.44 245.26 282.73 165.75"/><polygon class="cls-1" points="282.73 165.75 245.44 245.26 233.12 201.99 282.73 165.75"/><polygon class="cls-1" points="247.55 50.01 267.6 78.16 204.98 15.54 247.55 50.01"/><polygon class="cls-2" points="267.6 78.16 251.42 126.35 207.79 60.22 267.6 78.16"/><polygon class="cls-2" points="267.6 78.16 207.79 60.22 204.98 15.54 267.6 78.16"/><polygon class="cls-2" points="207.79 60.22 251.42 126.35 185.63 136.91 207.79 60.22"/><polygon class="cls-2" points="251.42 126.35 233.12 201.99 185.63 136.91 251.42 126.35"/><polygon class="cls-1" points="233.12 201.99 245.44 245.26 188.09 261.09 233.12 201.99"/><polygon class="cls-1" points="245.44 245.26 170.86 286.77 188.09 261.09 245.44 245.26"/><polygon class="cls-2" points="185.63 136.91 233.12 201.99 149.04 216.41 185.63 136.91"/><polygon class="cls-2" points="233.12 201.99 188.09 261.09 149.04 216.41 233.12 201.99"/><polygon class="cls-3" points="204.98 15.54 207.79 60.22 145 20.46 204.98 15.54"/><polygon class="cls-3" points="207.79 60.22 185.63 136.91 123.36 74.99 207.79 60.22"/><polygon class="cls-3" points="207.79 60.22 123.36 74.99 145 20.46 207.79 60.22"/><polygon class="cls-3" points="204.98 15.54 145 20.46 119.49 3.23 204.98 15.54"/><polygon class="cls-2" points="149.04 216.41 188.09 261.09 110 269.18 149.04 216.41"/><polygon class="cls-2" points="188.09 261.09 170.86 286.77 110 269.18 188.09 261.09"/><polygon class="cls-3" points="185.63 136.91 149.04 216.41 108.24 150.22 185.63 136.91"/><polygon class="cls-3" points="185.63 136.91 108.24 150.22 123.36 74.99 185.63 136.91"/><polygon class="cls-2" points="170.86 286.77 85.02 274.46 110 269.18 170.86 286.77"/><polygon class="cls-3" points="108.24 150.22 149.04 216.41 64.26 204.8 108.24 150.22"/><polygon class="cls-3" points="149.04 216.41 110 269.18 64.26 204.8 149.04 216.41"/><polygon class="cls-4" points="145 20.46 123.36 74.99 69.54 40.52 145 20.46"/><polygon class="cls-4" points="145 20.46 69.54 40.52 119.49 3.23 145 20.46"/><polygon class="cls-4" points="123.36 74.99 108.24 150.22 48.43 117.21 123.36 74.99"/><polygon class="cls-4" points="123.36 74.99 48.43 117.21 69.54 40.52 123.36 74.99"/><polygon class="cls-5" points="119.49 3.23 69.54 40.52 44.56 44.74 119.49 3.23"/><polygon class="cls-3" points="64.26 204.8 110 269.18 41.75 238.57 64.26 204.8"/><polygon class="cls-3" points="110 269.18 85.02 274.46 41.75 238.57 110 269.18"/><polygon class="cls-4" points="108.24 150.22 64.26 204.8 48.43 117.21 108.24 150.22"/><polygon class="cls-5" points="69.54 40.52 48.43 117.21 16.77 90.12 69.54 40.52"/><polygon class="cls-5" points="69.54 40.52 16.77 90.12 44.56 44.74 69.54 40.52"/><polygon class="cls-4" points="48.43 117.21 64.26 204.8 9.74 167.51 48.43 117.21"/><polygon class="cls-4" points="64.26 204.8 41.75 238.57 9.74 167.51 64.26 204.8"/><polygon class="cls-5" points="48.43 117.21 9.74 167.51 16.77 90.12 48.43 117.21"/><polygon class="cls-4" points="9.74 167.51 41.75 238.57 22.75 212.19 9.74 167.51"/><polygon class="cls-5" points="16.77 90.12 9.74 167.51 7.27 123.19 16.77 90.12"/><polygon class="cls-6" points="119.49 3.23 44.56 44.74 16.77 90.12 7.27 123.19 9.74 167.51 22.75 212.19 41.75 238.57 85.02 274.46 170.86 286.77 245.44 245.26 274.28 198.47 282.73 165.75 280.97 120.72 267.6 78.16 247.55 50.01 204.98 15.54 119.49 3.23"/><polyline class="cls-6" points="44.56 44.74 69.54 40.52 119.49 3.23 145 20.46 204.98 15.54 207.79 60.22 267.6 78.16 251.42 126.35 282.73 165.75 245.44 245.26 188.09 261.09 170.86 286.77 110 269.18 85.02 274.46"/><polyline class="cls-6" points="41.75 238.57 9.74 167.51 16.77 90.12"/><polyline class="cls-6" points="145 20.46 207.79 60.22 123.36 74.99 108.24 150.22 48.43 117.21 123.36 74.99 69.54 40.52 16.77 90.12 48.43 117.21 64.26 204.8 110 269.18 41.75 238.57 64.26 204.8 9.74 167.51 48.43 117.21 69.54 40.52 145 20.46 123.36 74.99"/><polygon class="cls-6" points="64.26 204.8 108.24 150.22 149.04 216.41 64.26 204.8"/><polygon class="cls-6" points="110 269.18 149.04 216.41 188.09 261.09 110 269.18"/><polyline class="cls-6" points="188.09 261.09 233.12 201.99 149.04 216.41 185.63 136.91 108.24 150.22"/><polygon class="cls-6" points="233.12 201.99 185.63 136.91 251.42 126.35 233.12 201.99"/><polyline class="cls-6" points="251.42 126.35 207.79 60.22 185.63 136.91 123.36 74.99"/><polyline class="cls-6" points="245.44 245.26 233.12 201.99 282.73 165.75 267.6 78.16 204.98 15.54"/></svg>